<?xml version="1.0" encoding="utf-8"?>
<!-- Generator: Adobe Illustrator 23.0.3, SVG Export Plug-In . SVG Version: 6.00 Build 0)  -->
<svg version="1.1" id="Capa_1" xmlns="http://www.w3.org/2000/svg" xmlns:xlink="http://www.w3.org/1999/xlink" x="0px" y="0px"
	 viewBox="0 0 18.8 18.8" style="enable-background:new 0 0 18.8 18.8;" xml:space="preserve">
<style type="text/css">
	.st0{fill:#4D5767;}
</style>
<g>
	<g>
		<path class="st0" d="M2.2,10.5h-2c-0.2,0-0.3,0.1-0.3,0.3v5.7c0,0.1,0.1,0.3,0.3,0.3h2c0.2,0,0.3-0.1,0.3-0.3v-5.7
			C2.5,10.6,2.4,10.5,2.2,10.5z"/>
		<path class="st0" d="M18.5,10.5h-2c-0.1,0-0.3,0.1-0.3,0.3v5.7c0,0.1,0.1,0.3,0.3,0.3h2c0.2,0,0.3-0.1,0.3-0.3v-5.7
			C18.8,10.6,18.7,10.5,18.5,10.5z"/>
		<path class="st0" d="M5.9,7.2h-2c-0.2,0-0.3,0.1-0.3,0.3v9c0,0.1,0.1,0.3,0.3,0.3h2c0.2,0,0.3-0.1,0.3-0.3v-9
			C6.2,7.3,6.1,7.2,5.9,7.2z"/>
		<path class="st0" d="M14.3,7.2h-2c-0.1,0-0.3,0.1-0.3,0.3v9c0,0.1,0.1,0.3,0.3,0.3h2c0.2,0,0.3-0.1,0.3-0.3v-9
			C14.5,7.3,14.4,7.2,14.3,7.2z"/>
		<path class="st0" d="M10,9.2H8c-0.2,0-0.3,0.1-0.3,0.3v7c0,0.1,0.1,0.3,0.3,0.3h2c0.2,0,0.3-0.1,0.3-0.3v-7
			C10.3,9.3,10.2,9.2,10,9.2z"/>
		<path class="st0" d="M1.3,6.9c0.6,0,1.1-0.5,1.1-1.1c0-0.1,0-0.2,0-0.3L4.5,4c0.1,0.1,0.3,0.1,0.4,0.1c0.3,0,0.6-0.1,0.8-0.3
			L7.8,5c0,0.1,0,0.1,0,0.2c0,0.6,0.5,1.1,1.1,1.1c0.6,0,1-0.4,1-1l2.8-0.8c0.2,0.3,0.5,0.4,0.8,0.4c0.2,0,0.4-0.1,0.6-0.2l2.4,1.6
			c0,0.1,0,0.2,0,0.3c0,0.6,0.5,1.1,1.1,1.1s1.1-0.5,1.1-1.1s-0.5-1.1-1.1-1.1c-0.2,0-0.4,0.1-0.6,0.2l-2.4-1.6c0-0.1,0-0.2,0-0.3
			c0-0.6-0.5-1.1-1.1-1.1c-0.6,0-1,0.4-1,1L9.7,4.6C9.5,4.3,9.2,4.1,8.8,4.1c-0.3,0-0.5,0.1-0.7,0.3L6,3.1c0,0,0,0,0,0
			C6,2.5,5.5,2,4.9,2S3.9,2.5,3.9,3.1c0,0.2,0,0.3,0.1,0.4L1.9,5C1.7,4.9,1.5,4.8,1.3,4.8c-0.6,0-1.1,0.5-1.1,1.1
			C0.2,6.5,0.7,6.9,1.3,6.9z"/>
	</g>
</g>
</svg>
