<?xml version="1.0" encoding="utf-8"?>
<!-- Generator: Adobe Illustrator 23.0.3, SVG Export Plug-In . SVG Version: 6.00 Build 0)  -->
<svg version="1.1" id="Layer_1" xmlns="http://www.w3.org/2000/svg" xmlns:xlink="http://www.w3.org/1999/xlink" x="0px" y="0px"
	 viewBox="0 0 160 130" style="enable-background:new 0 0 160 130;" xml:space="preserve">
<style type="text/css">
	.st0{clip-path:url(#SVGID_2_);}
	.st1{clip-path:url(#SVGID_4_);}
	.st2{fill:#919191;}
	.st3{clip-path:url(#SVGID_6_);}
	.st4{clip-path:url(#SVGID_8_);}
	.st5{opacity:0.4;fill:#C1C1C1;enable-background:new    ;}
	.st6{clip-path:url(#SVGID_10_);}
	.st7{clip-path:url(#SVGID_12_);}
	.st8{clip-path:url(#SVGID_14_);}
	.st9{clip-path:url(#SVGID_16_);}
</style>
<title>Privacy Icon_iOS Buddy</title>
<g>
	<defs>
		<path id="SVGID_1_" d="M17,26c0-11.6,8.5-21,21-21c11,0,19,7.3,20.7,17c0.2,1.3,0.4,2.7,0.3,4c0,11.6-8.5,21-21,21
			c-0.8,0-1.6,0-2.4-0.2C24.4,45.7,17,36.8,17,26"/>
	</defs>
	<clipPath id="SVGID_2_">
		<use xlink:href="#SVGID_1_"  style="overflow:visible;"/>
	</clipPath>
	<g class="st0">
		<g>
			<defs>
				<rect id="SVGID_3_" x="5" y="5" width="150" height="120"/>
			</defs>
			<clipPath id="SVGID_4_">
				<use xlink:href="#SVGID_3_"  style="overflow:visible;"/>
			</clipPath>
			<g class="st1">
				<rect x="12" y="0" class="st2" width="52" height="52"/>
			</g>
		</g>
	</g>
</g>
<g>
	<defs>
		<path id="SVGID_5_" d="M143,26c0-11.6-8.5-21-21-21c-11,0-18.9,7.3-20.6,17c-0.2,1.3-0.4,2.7-0.4,4c0,11.6,8.5,21,21,21
			c0.8,0,1.6,0,2.4-0.2C135.6,45.7,143,36.8,143,26"/>
	</defs>
	<clipPath id="SVGID_6_">
		<use xlink:href="#SVGID_5_"  style="overflow:visible;"/>
	</clipPath>
	<g class="st3">
		<g>
			<defs>
				<rect id="SVGID_7_" x="5" y="5" width="150" height="120"/>
			</defs>
			<clipPath id="SVGID_8_">
				<use xlink:href="#SVGID_7_"  style="overflow:visible;"/>
			</clipPath>
			<g class="st4">
				<rect x="96" y="0" class="st5" width="52" height="52"/>
			</g>
		</g>
	</g>
</g>
<g>
	<defs>
		<path id="SVGID_9_" d="M155,122c0,1.7-1.3,3-3,3h-42.2c-1.4,0-2.6-1.1-2.6-2.6c0-0.1,0-0.1,0-0.2c0.2-3,0.3-7,0.3-9.6
			c0-2.7-0.1-5.4-0.5-8c-2,1.3-4.1,2.5-6.2,3.6c-0.7,0.4-1.4,0.7-2.1,1s-1.4,0.6-2.1,0.8s-1.5,0.5-2.3,0.8s-1.3,0.4-2,0.6
			c-0.4,0.1-0.9,0.2-1.3,0.3s-1.2,0.3-1.8,0.4c-1.2,0.2-2.4,0.4-3.6,0.5c-0.4,0.1-0.8,0.1-1.1,0.1c-0.2-2.9-0.2-5.8,0-8.7
			c0-0.8-0.6-1.5-1.4-1.6c0,0-0.1,0-0.1,0h-4.5c-0.8,0-1.5-0.7-1.5-1.5c0,0,0,0,0-0.1c0-2,0.1-4.1,0.2-6.1C78.1,95,79.1,95,80,95
			s1.9,0,2.8-0.1c0.1,0,0.2,0,0.2,0c3.7-0.4,7.3-1.4,10.6-3.2c0.2-0.1,0.4-0.2,0.7-0.3c0.4-0.2,0.8-0.5,1.2-0.7
			c1.2-0.7,2.3-1.5,3.4-2.3l0.8-0.7c6.5-6.1,7.9-14.7,10.3-22s5.7-13.2,16.1-14.1C155.1,49.1,155,110.2,155,122"/>
	</defs>
	<clipPath id="SVGID_10_">
		<use xlink:href="#SVGID_9_"  style="overflow:visible;"/>
	</clipPath>
	<g class="st6">
		<g>
			<defs>
				<rect id="SVGID_11_" x="5" y="5" width="150" height="120"/>
			</defs>
			<clipPath id="SVGID_12_">
				<use xlink:href="#SVGID_11_"  style="overflow:visible;"/>
			</clipPath>
			<g class="st7">
				<rect x="72" y="46.5" class="st5" width="88" height="83.5"/>
			</g>
		</g>
	</g>
</g>
<g>
	<defs>
		<path id="SVGID_13_" d="M84.5,112.8c-0.4,0.1-0.8,0.1-1.2,0.1c-0.3,0-0.6,0.1-1,0.1h-0.1c-0.7,0-1.4,0.1-2.2,0.1l0,0
			c-0.8,0-1.5,0-2.2-0.1h0c-0.5,0-1-0.1-1.5-0.1c-0.2,0-0.3,0-0.4,0h-0.3c-0.4,0-0.8-0.1-1.1-0.1c-1.2-0.1-2.4-0.3-3.6-0.5
			c-0.6-0.1-1.2-0.2-1.8-0.4l-1.9-0.4c-1.4-0.3-2.7-0.8-4.1-1.4c-0.6-0.2-1.2-0.5-1.8-0.7s-1.3-0.6-2-0.9c-0.6-0.3-1.2-0.6-1.8-0.9
			c-0.5-0.3-1-0.5-1.5-0.8s-1-0.6-1.5-0.9s-1-0.6-1.5-1c-0.4,2.6-0.6,5.3-0.5,8c0,2.6,0.1,6.5,0.3,9.5c0.1,1.5-1,2.7-2.4,2.8
			c-0.1,0-0.1,0-0.2,0H8c-1.7,0-3-1.3-3-3c0-11.8-0.1-72.9,28.9-70.5l0,0c10.3,0.9,13.7,6.7,16,13.9c2.6,7.8,3.9,17.1,11.7,23.4
			c0.5,0.4,1,0.8,1.6,1.1c0.4,0.3,0.7,0.5,1.1,0.7c0.5,0.3,1.1,0.6,1.6,0.9c3.5,1.9,7.4,3,11.3,3.4c-0.2,2-0.3,4.1-0.3,6.1
			c0,0.8,0.7,1.5,1.5,1.5H83c0.8,0,1.5,0.7,1.5,1.5c0,0,0,0.1,0,0.1C84.3,107,84.3,109.9,84.5,112.8"/>
	</defs>
	<clipPath id="SVGID_14_">
		<use xlink:href="#SVGID_13_"  style="overflow:visible;"/>
	</clipPath>
	<g class="st8">
		<g>
			<defs>
				<rect id="SVGID_15_" x="5" y="5" width="150" height="120"/>
			</defs>
			<clipPath id="SVGID_16_">
				<use xlink:href="#SVGID_15_"  style="overflow:visible;"/>
			</clipPath>
			<g class="st9">
				<rect y="46.5" class="st2" width="89.5" height="83.5"/>
			</g>
		</g>
	</g>
</g>
</svg>
