<svg id="Layer_1" data-name="Layer 1" xmlns="http://www.w3.org/2000/svg" xmlns:xlink="http://www.w3.org/1999/xlink" viewBox="0 0 159.99 130"><defs><style>.cls-1,.cls-2{fill:none;}.cls-1{clip-rule:evenodd;}.cls-3{clip-path:url(#clip-path);}.cls-4{clip-path:url(#clip-path-2);}.cls-5,.cls-7{fill:#007aff;}.cls-6{clip-path:url(#clip-path-3);}.cls-7{opacity:0.4;}.cls-8{clip-path:url(#clip-path-5);}.cls-9{clip-path:url(#clip-path-7);}</style><clipPath id="clip-path" transform="translate(5 5)"><path class="cls-1" d="M12,21C12,9.39,20.53,0,33,0,44,0,51.95,7.32,53.65,17A21.69,21.69,0,0,1,54,21c0,11.61-8.52,21-21,21a16.09,16.09,0,0,1-2.43-.15C19.42,40.74,12,31.83,12,21"/></clipPath><clipPath id="clip-path-2" transform="translate(5 5)"><rect class="cls-2" width="150" height="120"/></clipPath><clipPath id="clip-path-3" transform="translate(5 5)"><path class="cls-1" d="M138,21c0-11.61-8.52-21-21-21C106,0,98.08,7.32,96.37,17A21.69,21.69,0,0,0,96,21c0,11.61,8.52,21,21,21a16,16,0,0,0,2.43-.15C130.6,40.74,138,31.83,138,21"/></clipPath><clipPath id="clip-path-5" transform="translate(5 5)"><path class="cls-1" d="M150,117a3,3,0,0,1-3,3H104.79a2.56,2.56,0,0,1-2.56-2.73c.19-3,.33-7,.33-9.56a50.93,50.93,0,0,0-.51-8,46.06,46.06,0,0,1-6.21,3.57c-.69.36-1.41.66-2.13,1s-1.38.57-2.1.84-1.53.54-2.31.78-1.32.39-2,.57c-.45.12-.87.24-1.32.33s-1.17.27-1.77.39c-1.17.21-2.37.42-3.6.54-.36.06-.75.09-1.14.12a84.42,84.42,0,0,1,0-8.72,1.48,1.48,0,0,0-1.5-1.56H73.52A1.52,1.52,0,0,1,72,96a59.8,59.8,0,0,1,.24-6.13c.9.09,1.86.12,2.79.12s1.89,0,2.82-.12c.09,0,.18,0,.24,0a29.6,29.6,0,0,0,10.59-3.15c.24-.12.45-.21.66-.33a9.87,9.87,0,0,0,1.23-.72,33,33,0,0,0,3.36-2.34l.81-.72c6.54-6.14,7.92-14.74,10.29-22s5.7-13.16,16.07-14.06C150.08,44.11,150,105.22,150,117"/></clipPath><clipPath id="clip-path-7" transform="translate(5 5)"><path class="cls-1" d="M79.49,107.8a7.81,7.81,0,0,1-1.2.09c-.3,0-.63.06-1,.06h-.06c-.72,0-1.44.06-2.19.06h0c-.75,0-1.47,0-2.19-.06H72.8c-.51,0-1-.06-1.47-.09-.15,0-.27,0-.42,0l-.27,0c-.39,0-.78-.06-1.14-.12-1.23-.12-2.43-.33-3.6-.54-.6-.12-1.17-.24-1.77-.39l-1.92-.45A27.16,27.16,0,0,1,58.15,105c-.61-.25-1.22-.46-1.81-.74s-1.32-.57-2-.9a18.12,18.12,0,0,1-1.83-.93c-.54-.27-1.05-.54-1.53-.84s-1-.6-1.5-.9-1-.63-1.47-1a50.55,50.55,0,0,0-.51,8c0,2.56.13,6.52.32,9.47A2.64,2.64,0,0,1,45.19,120H3a3,3,0,0,1-3-3c0-11.81-.09-72.89,28.92-70.46h0c10.33.87,13.7,6.71,16,13.87,2.58,7.79,3.94,17.15,11.74,23.38a17.36,17.36,0,0,0,1.56,1.11c.36.27.72.48,1.11.72a13.84,13.84,0,0,0,1.62.9A29.48,29.48,0,0,0,72.26,89.9,59.91,59.91,0,0,0,72,96a1.51,1.51,0,0,0,1.51,1.49H78a1.49,1.49,0,0,1,1.5,1.57,82.72,82.72,0,0,0,0,8.71"/></clipPath></defs><title>Privacy Icon_iOS Buddy</title><g class="cls-3"><g class="cls-4"><rect class="cls-5" x="12.01" width="52" height="52"/></g></g><g class="cls-6"><g class="cls-4"><rect class="cls-7" x="96.01" width="52" height="52"/></g></g><g class="cls-8"><g class="cls-4"><rect class="cls-7" x="72" y="46.5" width="88" height="83.5"/></g></g><g class="cls-9"><g class="cls-4"><rect class="cls-5" y="46.5" width="89.49" height="83.5"/></g></g></svg>